<svg width="360" height="360" viewBox="0 0 360 360" fill="none" xmlns="http://www.w3.org/2000/svg">
<path d="M180 33.75C141.212 33.75 104.013 49.1584 76.5856 76.5856C49.1584 104.013 33.75 141.212 33.75 180C33.75 218.788 49.1584 255.987 76.5856 283.414C104.013 310.842 141.212 326.25 180 326.25C210.248 326.25 242.016 317.138 264.98 301.88C266.211 301.062 267.268 300.009 268.092 298.782C268.916 297.555 269.491 296.178 269.783 294.729C270.074 293.281 270.078 291.789 269.793 290.338C269.508 288.888 268.941 287.508 268.123 286.277C267.305 285.047 266.252 283.989 265.025 283.165C263.798 282.341 262.421 281.766 260.972 281.475C259.524 281.183 258.031 281.179 256.581 281.464C255.131 281.749 253.751 282.316 252.52 283.134C233.438 295.847 205.608 303.75 180 303.75C155.525 303.75 131.599 296.492 111.248 282.894C90.8976 269.297 75.0363 249.969 65.6699 227.357C56.3036 204.745 53.8529 179.863 58.6278 155.858C63.4027 131.852 75.1888 109.802 92.4955 92.4955C109.802 75.1888 131.852 63.4027 155.858 58.6278C179.863 53.8529 204.745 56.3036 227.357 65.6699C249.969 75.0363 269.297 90.8976 282.894 111.248C296.492 131.599 303.75 155.525 303.75 180C303.75 217.195 288.45 225 275.625 225C262.8 225 247.5 217.195 247.5 180V123.75C247.5 120.766 246.315 117.905 244.205 115.795C242.095 113.685 239.234 112.5 236.25 112.5C233.266 112.5 230.405 113.685 228.295 115.795C226.185 117.905 225 120.766 225 123.75V129.741C214.904 120.689 202.316 114.888 188.876 113.093C175.436 111.297 161.767 113.592 149.65 119.676C137.532 125.761 127.528 135.354 120.941 147.206C114.354 159.057 111.488 172.618 112.718 186.122C113.948 199.625 119.217 212.445 127.837 222.911C136.457 233.378 148.03 241.005 161.048 244.801C174.065 248.596 187.924 248.382 200.818 244.188C213.712 239.994 225.045 232.014 233.339 221.288C241.777 238.163 256.331 247.5 275.625 247.5C307.322 247.5 326.25 222.272 326.25 180C326.209 141.225 310.787 104.049 283.369 76.6309C255.951 49.2125 218.775 33.7909 180 33.75ZM180 225C171.1 225 162.4 222.361 154.999 217.416C147.599 212.471 141.831 205.443 138.425 197.221C135.019 188.998 134.128 179.95 135.865 171.221C137.601 162.492 141.887 154.474 148.18 148.18C154.474 141.887 162.492 137.601 171.221 135.865C179.95 134.128 188.998 135.019 197.221 138.425C205.443 141.831 212.471 147.599 217.416 154.999C222.361 162.4 225 171.1 225 180C225 191.935 220.259 203.381 211.82 211.82C203.381 220.259 191.935 225 180 225Z" fill="black" fill-opacity="0.1"/>
</svg>
