<svg width="333" height="333" viewBox="0 0 333 333" fill="none" xmlns="http://www.w3.org/2000/svg">
<path d="M291.375 62.4375H41.625C38.8651 62.4375 36.2182 63.5339 34.2667 65.4854C32.3151 67.437 31.2188 70.0838 31.2188 72.8438V249.75C31.2188 255.27 33.4115 260.564 37.3146 264.467C41.2177 268.37 46.5114 270.562 52.0312 270.562H280.969C286.489 270.562 291.782 268.37 295.685 264.467C299.589 260.564 301.781 255.27 301.781 249.75V72.8438C301.781 70.0838 300.685 67.437 298.733 65.4854C296.782 63.5339 294.135 62.4375 291.375 62.4375ZM264.618 83.25L166.5 173.199L68.3821 83.25H264.618ZM280.969 249.75H52.0312V96.505L159.463 194.987C161.383 196.749 163.894 197.727 166.5 197.727C169.106 197.727 171.617 196.749 173.537 194.987L280.969 96.505V249.75Z" fill="url(#paint0_linear_27_156)" fill-opacity="0.1"/>
<defs>
<linearGradient id="paint0_linear_27_156" x1="166.5" y1="62.4375" x2="166.5" y2="270.562" gradientUnits="userSpaceOnUse">
<stop stop-opacity="0.46"/>
<stop offset="1"/>
</linearGradient>
</defs>
</svg>
